# xmcd
#
# Track frame offsets: 
#        150
#        900
#        1650
#        2400
#        3150
#        3900
#        4650
#        5400
#        6150
#        6900
#        7650
#        8400
#        9150
#        298309
#
# Disc length: 4440 seconds
#
# Revision: 1
# Processed by: cddbd v1.4PL0 Copyright (c) Steve Scherf et al.
# Submitted via: ExactAudioCopy v0.95a3
#
DISCID=6711560e
DTITLE=Van Morrison - What's wrong with this picture?
DYEAR=2003
DGENRE=Jazz
TTITLE0=What's wrong with this picture?
TTITLE1=Withnin boy moan
TTITLE2=Evening in June
TTITLE3=Too many myths
TTITLE4=Somerset
TTITLE5=Meaning of loneliness
TTITLE6=Stop drinking
TTITLE7=Goldfish bowl
TTITLE8=Once in a blue moon
TTITLE9=Saint James infirmary
TTITLE10=Little Village
TTITLE11=Fame
TTITLE12=Get on with the show
TTITLE13=Data track
EXTD=YEAR: 2003
EXTT0=
EXTT1=
EXTT2=
EXTT3=
EXTT4=
EXTT5=
EXTT6=
EXTT7=
EXTT8=
EXTT9=
EXTT10=
EXTT11=
EXTT12=
EXTT13=
PLAYORDER=
